# AST/ASF file generated using VICON BodyLanguage
# -----------------------------------------------
:version 1.10
:name VICON
:units
  mass 1.0
  length 0.45
  angle deg
:documentation
   .ast/.asf automatically generated from VICON data using
   VICON BodyBuilder and BodyLanguage model FoxedUp or BRILLIANT.MOD
:root
   order TX TY TZ RX RY RZ
   axis XYZ
   position 0 0 0  
   orientation 0 0 0 
:bonedata
  begin
     id 1 
     name lhipjoint
     direction 0.646657 -0.683706 0.338203 
     length 2.4948 
     axis 0 0 0  XYZ
  end
  begin
     id 2 
     name lfemur
     direction 0.34202 -0.939693 0  
     length 6.79491  
     axis 0 0 20  XYZ
    dof rx ry rz
    limits (-160.0 20.0)
           (-70.0 70.0)
           (-60.0 70.0)
  end
  begin
     id 3 
     name ltibia
     direction 0.34202 -0.939693 0   
     length 7.56807   
     axis 0 0 20   XYZ
    dof rx
    limits (-10.0 170.0)
  end
  begin
     id 4 
     name lfoot
     direction 0.0679796 -0.186772 0.980048   
     length 2.53018   
     axis -90 7.62852e-016 20   XYZ
    dof rx rz
    limits (-45.0 90.0)
           (-70.0 20.0)
  end
  begin
     id 5 
     name ltoes
     direction 1.53625e-011 -4.21881e-011 1   
     length 1.26912   
     axis -90 7.62852e-016 20   XYZ
    dof rx
    limits (-90.0 20.0)
  end
  begin
     id 6 
     name rhipjoint
     direction -0.618868 -0.704065 0.348274   
     length 2.42265  
     axis 0 0 0  XYZ 
  end
  begin
     id 7 
     name rfemur
     direction -0.34202 -0.939693 0   
     length 6.73814   
     axis 0 0 -20   XYZ
    dof rx ry rz
    limits (-160.0 20.0)
           (-70.0 70.0)
           (-70.0 60.0)
  end
  begin
     id 8 
     name rtibia
     direction -0.34202 -0.939693 0   
     length 7.66799   
     axis 0 0 -20   XYZ
    dof rx
    limits (-10.0 170.0)
 end
 begin
     id 9 
     name rfoot
     direction -0.0727352 -0.199838 0.977125   
     length 2.57224  
     axis -90 -7.62852e-016 -20   XYZ
    dof rx rz
    limits (-45.0 90.0)
           (-20.0 70.0)
  end
  begin
     id 10 
     name rtoes
     direction -1.53501e-011 -4.21858e-011 1   
     length 1.28858   
     axis -90 -7.62852e-016 -20   XYZ
    dof rx
    limits (-90.0 20.0)
  end
  begin
     id 11 
     name lowerback
     direction -0.0172471 0.995767 -0.0902851   
     length 2.20206   
     axis 0 0 0   XYZ
    dof rx ry rz
    limits (-20.0 45.0)
           (-30.0 30.0)
           (-30.0 30.0)
  end
  begin
     id 12 
     name upperback
     direction -0.000110737 0.999714 0.0239043   
     length 2.19523   
     axis 0 0 0   XYZ
    dof rx ry rz
    limits (-20.0 45.0)
           (-30.0 30.0)
           (-30.0 30.0)
  end
  begin
     id 13 
     name thorax
     direction 0.00704869 0.997783 0.0661741   
     length 2.21977   
     axis 0 0 0   XYZ
    dof rx ry rz
    limits (-20.0 45.0)
           (-30.0 30.0)
           (-30.0 30.0)
  end
  begin
     id 14 
     name lowerneck
     direction -0.00407501 0.995527 0.0943846   
     length 1.83142   
     axis 0 0 0   XYZ
    dof rx ry rz
    limits (-20.0 45.0)
           (-30.0 30.0)
           (-30.0 30.0)
  end
  begin
     id 15 
     name upperneck
     direction 0.0640586 0.986486 -0.150807   
     length 1.84616   
     axis 0 0 0   XYZ
    dof rx ry rz
    limits (-20.0 45.0)
           (-30.0 30.0)
           (-30.0 30.0)
  end
  begin
     id 16
     name head
     direction 0.0188017 0.99791 -0.0618239  
     length 1.85932  
     axis 0 0 0   XYZ
    dof rx ry rz
    limits (-20.0 45.0)
           (-30.0 30.0)
           (-30.0 30.0)
  end
  begin
     id 17 
     name lclavicle
     direction 0.976074 0.206905 0.066852  
     length 3.81043  
     axis 0 0 0   XYZ
    dof ry rz
    limits (-20.0 10.0)
           (0.0 20.0)
  end
  begin
     id 18 
     name lhumerus
     direction 1 -4.48971e-011 1.86916e-027   
     length 5.37587   
     axis 180 -30 -90   XYZ
    dof rx ry rz
    limits (-60.0 90.0)
           (-90.0 90.0)
           (-90.0 90.0)
  end
  begin
     id 19
     name lradius
     direction 1 -4.48968e-011 1.69187e-027   
     length 3.35977   
     axis 180 -30 -90   XYZ
    dof rx
    limits (-10.0 170.0)
  end
  begin
     id 20
     name lwrist
     direction 1 -4.48968e-011 5.8978e-027   
     length 1.67988   
     axis -3.27506e-015 90 90   XYZ
    dof ry
    limits (-180.0 0.0)
 end
  begin
     id 21 
     name lhand
     direction 1 -4.49028e-011 1.18071e-026   
     length 0.561859   
     axis -7.52654e-015 90 90   XYZ
    dof rx rz
    limits (-90.0 90.0)
           (-45.0 45.0)
  end
  begin
     id 22 
     name lfingers
     direction 1 -4.48927e-011 2.35758e-026   
     length 0.452985   
     axis -1.50534e-014 90 90   XYZ
    dof rx
    limits (0.0 90.0)
  end
  begin
     id 23
     name lthumb
     direction 0.707107 -6.34898e-011 0.707107   
     length 0.650399   
     axis -90 45 5.69224e-014   XYZ
    dof rx rz
    limits (-45.0 45.0)
           (-45.0 45.0)
  end
  begin
     id 24 
     name rclavicle
     direction -0.988403 0.151789 0.00439714   
     length 3.6942  
     axis 0 0 0   XYZ 
    dof ry rz
    limits (-10.0 20.0)
           (-20.0 0.0)
  end
  begin
     id 25 
     name rhumerus
     direction -1 -4.48978e-011 1.62495e-027  
     length 5.22819   
     axis 180 30 90   XYZ
    dof rx ry rz
    limits (-90.0 60.0)
           (-90.0 90.0)
           (-90.0 90.0)
  end
  begin
     id 26 
     name rradius
     direction -1 -4.48961e-011 3.47796e-027   
     length 3.40764   
     axis 180 30 90   XYZ
    dof rx
    limits (-10.0 170.0)
  end
  begin
     id 27 
     name rwrist
     direction -1 -4.48949e-011 5.89602e-027   
     length 1.70382   
     axis -3.27506e-015 -90 -90   XYZ
    dof ry
    limits (-180.0 0.0)
  end
  begin
     id 28
     name rhand
     direction -1 -4.48977e-011 1.17973e-026   
     length 0.583255   
     axis -7.52654e-015 -90 -90   XYZ
    dof rx rz
    limits (-90.0 90.0)
           (-45.0 45.0)
  end
  begin
     id 29
     name rfingers
     direction -1 -4.49099e-011 2.36408e-026   
     length 0.470235   
     axis -1.50534e-014 -90 -90   XYZ
    dof rx
    limits (0.0 90.0)
  end
  begin
     id 30
     name rthumb
     direction -0.707107 -6.35011e-011 0.707107   
     length 0.675167   
     axis -90 -45 -5.69224e-014   XYZ
    dof rx rz
    limits (-45.0 45.0)
           (-45.0 45.0)
  end
:hierarchy
  begin
    root lhipjoint rhipjoint lowerback
    lhipjoint lfemur
    lfemur ltibia
    ltibia lfoot
    lfoot ltoes
    rhipjoint rfemur
    rfemur rtibia
    rtibia rfoot
    rfoot rtoes
    lowerback upperback
    upperback thorax
    thorax lowerneck lclavicle rclavicle
    lowerneck upperneck
    upperneck head
    lclavicle lhumerus
    lhumerus lradius
    lradius lwrist
    lwrist lhand lthumb
    lhand lfingers
    rclavicle rhumerus
    rhumerus rradius
    rradius rwrist
    rwrist rhand rthumb
    rhand rfingers
  end

#!OML:ASF G:\JayActor3\Patient Classification 1\Patient 1\Session 2\male.ASF
:FULLY-SPECIFIED
:DEGREES
759
root -36.1211 16.6777 -3.91533 900.313 -41.421 -897.55
lowerback 1.41386 -1.71834 -2.91526
upperback 3.85238 -2.38414 -0.221381
thorax 3.27871 -1.322 1.36306
lowerneck -4.52735 -8.94631 -10.8141
upperneck 1.08384 -13.1569 22.6157
head 3.4098 -6.50271 7.99825
rclavicle -2.54444e-014 -2.38542e-015
rhumerus -41.4094 -5.66082 -86.8287
rradius 34.8462
rwrist -14.5052
rhand -27.4933 1.64665
rfingers 7.12502
rthumb -0.896573 -28.3312
lclavicle -2.54444e-014 -2.38542e-015
lhumerus -9.07102 -8.42614 83.6676
lradius 27.54
lwrist 16.4902
lhand -21.031 16.1017
lfingers 7.12502
lthumb 5.34438 46.0143
rfemur -22.5846 1.08766 20.3696
rtibia 42.0571
rfoot -26.8884 -4.44336
rtoes -11.1186
lfemur -16.9393 14.4833 -23.3073
ltibia 31.3557
lfoot -19.9634 18.8983
ltoes 9.0651
760
root -36.1416 16.6704 -3.88247 900.392 -39.6966 -897.592
lowerback 1.46152 -1.81652 -2.93995
upperback 3.92186 -2.52124 -0.271176
thorax 3.32918 -1.39453 1.32293
lowerneck -4.22847 -9.14076 -11.0324
upperneck 0.924111 -13.4534 22.848
head 3.39754 -6.68081 8.09421
rclavicle 7.20594e-014 -4.13472e-014
rhumerus -41.2031 -5.44192 -87.0249
rradius 34.8185
rwrist -14.5045
rhand -27.5246 1.6809
rfingers 7.12502
rthumb -0.926805 -28.2968
lclavicle 7.20594e-014 -4.13472e-014
lhumerus -9.38599 -8.62017 84.1521
lradius 26.6204
lwrist 16.2767
lhand -20.7545 16.3646
lfingers 7.12502
lthumb 5.61136 46.2703
rfemur -22.5627 0.693267 20.5663
rtibia 42.4677
rfoot -27.4243 -5.63098
rtoes -11.3472
lfemur -17.0053 15.0583 -23.4187
ltibia 31.5339
lfoot -20.5234 19.771
ltoes 9.54633
761
root -36.1629 16.6631 -3.84991 900.444 -37.9709 -897.628
lowerback 1.51034 -1.9126 -2.95232
upperback 3.99126 -2.65595 -0.321926
thorax 3.37806 -1.46557 1.275
lowerneck -3.96711 -9.35427 -11.1104
upperneck 0.782417 -13.771 22.9449
head 3.38039 -6.86593 8.11814
rclavicle 3.78685e-014 -3.10104e-014
rhumerus -40.983 -5.24068 -87.1872
rradius 34.7229
rwrist -14.459
rhand -27.5708 1.71055
rfingers 7.12502
rthumb -0.97134 -28.267
lclavicle 3.78685e-014 -3.10104e-014
lhumerus -9.67259 -8.78082 84.6576
lradius 25.7097
lwrist 16.0193
lhand -20.4769 16.6408
lfingers 7.12502
lthumb 5.87936 46.5392
rfemur -22.502 0.207632 20.785
rtibia 42.9888
rfoot -27.8816 -7.02522
rtoes -11.4088
lfemur -17.0486 15.6031 -23.5242
ltibia 31.7122
lfoot -21.1529 20.6479
ltoes 10.1494
762
root -36.1849 16.6563 -3.81764 900.494 -36.2317 -897.666
lowerback 1.54318 -2.00305 -2.95937
upperback 4.05827 -2.78261 -0.376722
thorax 3.43246 -1.53238 1.21949
lowerneck -3.84485 -9.53421 -11.1856
upperneck 0.833521 -14.0544 22.9561
head 3.42967 -7.01565 8.10809
rclavicle -2.18663e-015 3.18055e-015
rhumerus -40.7403 -5.06847 -87.3196
rradius 34.5626
rwrist -14.3621
rhand -27.6259 1.75577
rfingers 7.12502
rthumb -1.02456 -28.2215
lclavicle -2.18663e-015 3.18055e-015
lhumerus -9.9328 -8.93981 85.1707
lradius 24.8359
lwrist 15.7622
lhand -20.1519 16.926
lfingers 7.12502
lthumb 6.19321 46.8155
rfemur -22.4227 -0.34377 21.012
rtibia 43.6095
rfoot -28.2893 -8.48846
rtoes -11.006
lfemur -17.0838 16.1212 -23.6342
ltibia 31.8817
lfoot -21.8695 21.5309
ltoes 10.8511
763
root -36.2076 16.6502 -3.7856 900.542 -34.4647 -897.705
lowerback 1.55376 -2.0826 -2.95847
upperback 4.12511 -2.89396 -0.435015
thorax 3.49775 -1.59135 1.15524
lowerneck -3.83248 -9.69438 -11.24
upperneck 1.02041 -14.3149 22.8797
head 3.52406 -7.14001 8.06095
rclavicle 1.33186e-014 -7.15625e-015
rhumerus -40.4867 -4.89917 -87.4304
rradius 34.3727
rwrist -14.2541
rhand -27.6874 1.80345
rfingers 7.12502
rthumb -1.08403 -28.1735
lclavicle 1.33186e-014 -7.15625e-015
lhumerus -10.1733 -9.11897 85.6887
lradius 24.0272
lwrist 15.5018
lhand -19.8149 17.2358
lfingers 7.12502
lthumb 6.51849 47.1155
rfemur -22.331 -0.940663 21.242
rtibia 44.3166
rfoot -28.6656 -9.96926
rtoes -10.2242
lfemur -17.1091 16.6125 -23.747
ltibia 32.0325
lfoot -22.6625 22.4275
ltoes 11.6013
764
root -36.2299 16.645 -3.75337 900.596 -32.6739 -897.737
lowerback 1.54919 -2.15083 -2.95298
upperback 4.18633 -2.98959 -0.493459
thorax 3.56461 -1.64214 1.08797
lowerneck -3.81359 -9.84506 -11.2874
upperneck 1.18077 -14.5596 22.8091
head 3.60687 -7.25849 8.01657
rclavicle -3.25013e-014 -4.45278e-014
rhumerus -40.2246 -4.74228 -87.52
rradius 34.1624
rwrist -14.1408
rhand -27.749 1.86416
rfingers 7.12502
rthumb -1.14347 -28.1125
lclavicle -3.25013e-014 -4.45278e-014
lhumerus -10.4005 -9.33463 86.2103
lradius 23.3012
lwrist 15.249
lhand -19.4536 17.555
lfingers 7.12502
lthumb 6.86726 47.4237
rfemur -22.2413 -1.56499 21.4776
rtibia 45.0933
rfoot -29.0052 -11.4344
rtoes -9.1439
lfemur -17.1401 17.0777 -23.86
ltibia 32.1592
lfoot -23.5023 23.3404
ltoes 12.3289
765
root -36.2524 16.6407 -3.72142 900.654 -30.8428 -897.769
lowerback 1.53936 -2.201 -2.95261
upperback 4.23561 -3.06067 -0.548293
thorax 3.62129 -1.68045 1.02779
lowerneck -3.81319 -10.0066 -11.262
upperneck 1.32654 -14.8108 22.6725
head 3.67818 -7.37941 7.93691
rclavicle -1.05356e-014 1.74931e-014
rhumerus -39.9746 -4.60086 -87.5752
rradius 33.946
rwrist -14.0266
rhand -27.8046 1.93624
rfingers 7.12502
rthumb -1.19722 -28.0401
lclavicle -1.05356e-014 1.74931e-014
lhumerus -10.6205 -9.49418 86.7562
lradius 22.6398
lwrist 14.8954
lhand -19.1145 17.8693
lfingers 7.12502
lthumb 7.19467 47.727
rfemur -22.1428 -2.15316 21.7052
rtibia 45.9225
rfoot -29.4264 -12.7326
rtoes -7.44193
lfemur -17.1615 17.5283 -23.9762
ltibia 32.2527
lfoot -24.375 24.2679
ltoes 13.0315
766
root -36.2751 16.6373 -3.69005 900.711 -28.9713 -897.808
lowerback 1.52401 -2.23285 -2.95662
upperback 4.28093 -3.10708 -0.608139
thorax 3.67578 -1.70644 0.965218
lowerneck -3.76559 -10.1643 -11.2496
upperneck 1.38633 -15.0539 22.5959
head 3.72118 -7.50411 7.88307
rclavicle -1.27222e-014 4.92986e-014
rhumerus -39.7234 -4.51446 -87.5923
rradius 33.7091
rwrist -13.8798
rhand -27.8544 2.00828
rfingers 7.12502
rthumb -1.24528 -27.9678
lclavicle -1.27222e-014 4.92986e-014
lhumerus -10.827 -9.60214 87.3099
lradius 22.0454
lwrist 14.4154
lhand -18.8244 18.172
lfingers 7.12502
lthumb 7.47465 48.0199
rfemur -22.0247 -2.68593 21.9157
rtibia 46.7834
rfoot -29.8346 -14.0423
rtoes -5.80365
lfemur -17.1582 17.9632 -24.1011
ltibia 32.3054
lfoot -25.2635 25.2133
ltoes 13.6781
767
root -36.2988 16.6353 -3.65951 900.761 -27.0684 -897.86
lowerback 1.51348 -2.2487 -2.96633
upperback 4.3231 -3.13241 -0.675024
thorax 3.72327 -1.72201 0.899307
lowerneck -3.70913 -10.3144 -11.2376
upperneck 1.41809 -15.2853 22.5369
head 3.75398 -7.62534 7.83704
rclavicle -1.98785e-015 1.43125e-014
rhumerus -39.4759 -4.48338 -87.5703
rradius 33.4604
rwrist -13.7032
rhand -27.887 2.08779
rfingers 7.12502
rthumb -1.27674 -27.8881
lclavicle -1.98785e-015 1.43125e-014
lhumerus -11.028 -9.67243 87.8707
lradius 21.5295
lwrist 13.8507
lhand -18.586 18.4483
lfingers 7.12502
lthumb 7.70472 48.2879
rfemur -21.8732 -3.15155 22.0967
rtibia 47.6619
rfoot -30.2496 -15.358
rtoes -4.22993
lfemur -17.1111 18.3997 -24.2368
ltibia 32.3046
lfoot -26.1672 26.1593
ltoes 14.271
768
root -36.3234 16.635 -3.63018 900.796 -25.1348 -897.922
lowerback 1.5096 -2.25181 -2.98215
upperback 4.36128 -3.14116 -0.745856
thorax 3.76227 -1.72943 0.833515
lowerneck -3.64601 -10.4516 -11.2259
upperneck 1.4345 -15.4973 22.4828
head 3.77809 -7.7383 7.79541
rclavicle 1.16885e-013 2.94201e-014
rhumerus -39.2423 -4.4917 -87.5139
rradius 33.212
rwrist -13.4964
rhand -27.9194 2.16576
rfingers 7.12502
rthumb -1.30805 -27.81
lclavicle 1.16885e-013 2.94201e-014
lhumerus -11.2346 -9.72521 88.4333
lradius 21.106
lwrist 13.2537
lhand -18.3831 18.6718
lfingers 7.12502
lthumb 7.90063 48.5042
rfemur -21.6848 -3.55523 22.2522
rtibia 48.5413
rfoot -30.6558 -16.7327
rtoes -2.77615
lfemur -17.0095 18.8343 -24.3743
ltibia 32.243
lfoot -27.1117 27.0831
ltoes 14.8852
769
root -36.3491 16.6356 -3.60212 900.81 -23.1931 -897.999
lowerback 1.51518 -2.24784 -3.00013
upperback 4.40396 -3.14143 -0.825382
thorax 3.79991 -1.73299 0.760449
lowerneck -3.5666 -10.5762 -11.2231
upperneck 1.41523 -15.6906 22.4543
head 3.78881 -7.84519 7.76705
rclavicle 1.72943e-014 -4.77083e-015
rhumerus -39.0183 -4.52501 -87.4335
rradius 32.9767
rwrist -13.2795
rhand -27.95 2.22677
rfingers 7.12502
rthumb -1.33761 -27.7488
lclavicle 1.72943e-014 -4.77083e-015
lhumerus -11.4425 -9.79307 88.9906
lradius 20.7873
lwrist 12.6729
lhand -18.1385 18.7835
lfingers 7.12502
lthumb 8.13667 48.6068
rfemur -21.4481 -3.91787 22.3681
rtibia 49.4162
rfoot -31.1638 -17.9871
rtoes -0.916058
lfemur -16.846 19.3034 -24.5288
ltibia 32.1161
lfoot -28.0409 27.9959
ltoes 15.4405
770
root -36.3755 16.6382 -3.5751 900.811 -21.2546 -898.091
lowerback 1.53782 -2.23988 -3.02904
upperback 4.43991 -3.13729 -0.905495
thorax 3.82134 -1.7346 0.693966
lowerneck -3.49444 -10.6888 -11.2194
upperneck 1.40256 -15.8663 22.4153
head 3.79846 -7.94255 7.73678
rclavicle 2.50469e-014 -4.77083e-015
rhumerus -38.8169 -4.56855 -87.3334
rradius 32.7667
rwrist -13.0554
rhand -27.9871 2.27951
rfingers 7.12502
rthumb -1.37347 -27.6958
lclavicle 2.50469e-014 -4.77083e-015
lhumerus -11.6694 -9.90541 89.5543
lradius 20.5869
lwrist 12.161
lhand -17.8875 18.785
lfingers 7.12502
lthumb 8.37893 48.5988
rfemur -21.1686 -4.2504 22.4366
rtibia 50.2763
rfoot -31.9357 -18.8743
rtoes 1.99778
lfemur -16.6388 19.7746 -24.6947
ltibia 31.9325
lfoot -28.9822 28.888
ltoes 15.977
771
root -36.4023 16.6421 -3.54934 900.798 -19.3057 -898.19
lowerback 1.56641 -2.22431 -3.06837
upperback 4.47465 -3.12373 -0.981109
thorax 3.83867 -1.7321 0.638398
lowerneck -3.42468 -10.7885 -11.2207
upperneck 1.38073 -16.0213 22.3757
head 3.80258 -8.02999 7.70965
rclavicle 4.35338e-014 -1.03368e-014
rhumerus -38.6387 -4.57074 -87.2286
rradius 32.6072
rwrist -12.883
rhand -28.0364 2.29246
rfingers 7.12502
rthumb -1.42111 -27.6826
lclavicle 4.35338e-014 -1.03368e-014
lhumerus -11.9038 -10.0385 90.1234
lradius 20.5015
lwrist 11.73
lhand -17.6525 18.6946
lfingers 7.12502
lthumb 8.60565 48.4993
rfemur -20.8619 -4.58489 22.4685
rtibia 51.1174
rfoot -32.8913 -19.4869
rtoes 5.4564
lfemur -16.3948 20.2546 -24.869
ltibia 31.7027
lfoot -29.9674 29.7543
ltoes 16.4786
772
root -36.4286 16.647 -3.52403 900.772 -17.3655 -898.291
lowerback 1.61611 -2.20563 -3.1218
upperback 4.50217 -3.10727 -1.04729
thorax 3.83782 -1.72865 0.601646
lowerneck -3.30122 -10.8776 -11.274
upperneck 1.28855 -16.1621 22.4107
head 3.78615 -8.11779 7.72051
rclavicle -1.35174e-014 6.36111e-015
rhumerus -38.4862 -4.52315 -87.1257
rradius 32.4988
rwrist -12.7551
rhand -28.0947 2.27616
rfingers 7.12502
rthumb -1.47734 -27.6985
lclavicle -1.35174e-014 6.36111e-015
lhumerus -12.1552 -10.2319 90.7005
lradius 20.5396
lwrist 11.4301
lhand -17.5114 18.5722
lfingers 7.12502
lthumb 8.74183 48.3712
rfemur -20.5448 -4.97477 22.4777
rtibia 51.9279
rfoot -33.8933 -19.9248
rtoes 8.96702
lfemur -16.1375 20.7025 -25.0413
ltibia 31.446
lfoot -31.0036 30.5995
ltoes 16.9725
773
root -36.4546 16.6524 -3.49955 900.736 -15.4385 -898.394
lowerback 1.68457 -2.18481 -3.19489
upperback 4.51887 -3.08894 -1.09819
thorax 3.81703 -1.72479 0.59279
lowerneck -3.13397 -10.9585 -11.3775
upperneck 1.14433 -16.2912 22.4997
head 3.75475 -8.20541 7.76142
rclavicle 3.81667e-014 -3.89618e-014
rhumerus -38.3655 -4.41476 -87.0175
rradius 32.4423
rwrist -12.6829
rhand -28.1583 2.24129
rfingers 7.12502
rthumb -1.53882 -27.7329
lclavicle 3.81667e-014 -3.89618e-014
lhumerus -12.424 -10.4462 91.2922
lradius 20.69
lwrist 11.2516
lhand -17.4815 18.4534
lfingers 7.12502
lthumb 8.77076 48.2511
rfemur -20.222 -5.41661 22.4676
rtibia 52.6997
rfoot -34.8861 -20.2085
rtoes 12.2126
lfemur -15.8735 21.1115 -25.212
ltibia 31.1784
lfoot -32.086 31.427
ltoes 17.4192
